<?xml version="1.0" encoding="UTF-8"?>
<svg width="68px" height="51px" viewBox="0 0 68 51" version="1.1" xmlns="http://www.w3.org/2000/svg" xmlns:xlink="http://www.w3.org/1999/xlink">
    <!-- Generator: Sketch 43.2 (39069) - http://www.bohemiancoding.com/sketch -->
    <title>LOGO</title>
    <desc>Created with Sketch.</desc>
    <defs>
        <polygon id="path-1" points="20.3076923 5.34594595 20.3076923 2.55675676 39.6923077 2.55675676 39.6923077 5.34836607 42.1182458 5.34836607 42.1182458 0.23104633 18.114262 0.23104633 18.114262 5.34594607"></polygon>
        <filter x="-29.2%" y="-97.7%" width="158.3%" height="373.6%" filterUnits="objectBoundingBox" id="filter-2">
            <feOffset dx="0" dy="2" in="SourceAlpha" result="shadowOffsetOuter1"></feOffset>
            <feGaussianBlur stdDeviation="2" in="shadowOffsetOuter1" result="shadowBlurOuter1"></feGaussianBlur>
            <feColorMatrix values="0 0 0 0 0   0 0 0 0 0   0 0 0 0 0  0 0 0 0.5 0" type="matrix" in="shadowBlurOuter1"></feColorMatrix>
        </filter>
        <rect id="path-3" x="0" y="5.31039746" width="60" height="37.6896025"></rect>
        <filter x="-11.7%" y="-13.3%" width="123.3%" height="137.1%" filterUnits="objectBoundingBox" id="filter-4">
            <feOffset dx="0" dy="2" in="SourceAlpha" result="shadowOffsetOuter1"></feOffset>
            <feGaussianBlur stdDeviation="2" in="shadowOffsetOuter1" result="shadowBlurOuter1"></feGaussianBlur>
            <feComposite in="shadowBlurOuter1" in2="SourceAlpha" operator="out" result="shadowBlurOuter1"></feComposite>
            <feColorMatrix values="0 0 0 0 0   0 0 0 0 0   0 0 0 0 0  0 0 0 0.5 0" type="matrix" in="shadowBlurOuter1"></feColorMatrix>
        </filter>
        <path d="M16.5871093,16.6858886 L17.4173267,8.92444104 C17.7596111,8.90986548 18.0818633,8.87524904 18.384093,8.82059068 C18.6863228,8.76593233 18.9867274,8.72767205 19.2853159,8.70580871 C19.2853159,8.71309649 19.2743921,8.78779512 19.2525441,8.92990685 C19.2306962,9.07201857 19.2015661,9.25785419 19.1651528,9.48741928 C19.1287396,9.71698437 19.0886857,9.9756967 19.0449898,10.263564 C19.0012939,10.5514314 18.9375717,10.9467875 18.8538213,11.4496444 C18.7700709,11.9525013 18.6590122,12.6484739 18.520642,13.5375831 L18.6845007,13.5375831 C18.8738494,12.8671073 19.0304239,12.31871 19.1542289,11.8923749 C19.2780339,11.4660397 19.3781687,11.1198753 19.4546365,10.8538713 C19.5311043,10.5878673 19.6039297,10.3309769 19.6731148,10.0831924 C19.7422999,9.83540783 19.8078427,9.60584618 19.8697452,9.39450054 C19.9316477,9.1831549 19.9808048,9.00460695 20.017218,8.85885134 L20.1155333,8.85885134 C20.2466209,8.85885134 20.3795272,8.85156367 20.5142561,8.83698811 C20.648985,8.82241255 20.7764294,8.80601529 20.896593,8.78779583 C21.0167567,8.76957638 21.1423804,8.74589145 21.273468,8.71674033 C21.2589028,8.78233035 21.242517,8.91715227 21.2243104,9.12121013 C21.2061038,9.32526799 21.1824356,9.5712269 21.153305,9.85909423 C21.1241744,10.1469616 21.0950443,10.4639753 21.0659137,10.8101449 C21.0367831,11.1563144 21.007653,11.4951912 20.9785224,11.8267852 C20.9493918,12.1583792 20.9220823,12.473571 20.896593,12.77237 C20.8711038,13.071169 20.8474355,13.3262375 20.8255876,13.5375831 L21.022218,13.5375831 L22.0599898,8.83698811 C22.3075997,8.8005492 22.5515647,8.76775468 22.791892,8.73860356 C23.0030887,8.70945244 23.2215647,8.68030175 23.4473267,8.65115063 C23.6730887,8.62199951 23.8733585,8.58920499 24.048142,8.55276608 C23.9389023,8.85885287 23.8296642,9.19955151 23.7204246,9.57487221 C23.6111849,9.95019291 23.4983056,10.3455491 23.3817833,10.7609526 C23.2652609,11.1763561 23.1542023,11.5953972 23.0486039,12.0180885 C22.9430056,12.4407797 22.8392294,12.8488893 22.7372724,13.2424295 C22.5042277,14.1752654 22.2784691,15.1335942 22.0599898,16.1174446 L19.5911854,16.532846 L20.0718376,12.3132421 L19.9407507,12.3132421 L18.8592833,16.2814188 L16.5871093,16.6858886 Z M22.791892,16.6530938 L24.2229246,8.88071457 L27.6748811,8.58556093 C27.6239026,8.74589211 27.5802074,8.90986471 27.5437941,9.07748367 C27.5073809,9.2159515 27.4727889,9.35988301 27.440017,9.50928251 C27.4072451,9.65868202 27.3799355,9.79168202 27.3580876,9.90828651 C27.2852612,9.91557429 27.181485,9.92104004 27.0467561,9.92468393 C26.9120272,9.92832782 26.7681971,9.93197166 26.6152615,9.93561555 C26.462326,9.93925944 26.3075721,9.94108136 26.1509952,9.94108136 L25.7413485,9.94108136 L25.3590115,11.8978407 C25.5847735,11.8832651 25.7959671,11.8723336 25.9925985,11.8650458 C26.1528167,11.857758 26.3166737,11.8541142 26.4841746,11.8541142 C26.6516754,11.8541142 26.7754785,11.8504704 26.8555876,11.8431826 C26.826457,12.0472405 26.7991475,12.2476514 26.7736583,12.4444215 C26.748169,12.6411916 26.7172182,12.8416025 26.680805,13.0456604 C26.6079786,13.0529482 26.4896373,13.0584139 26.3257778,13.0620578 C26.1619183,13.0657017 25.9962406,13.0711675 25.8287398,13.0784552 C25.639391,13.085743 25.4318387,13.0930307 25.2060767,13.1003185 L24.8346637,15.1117359 L26.429555,14.8603087 L26.3203159,16.106513 L22.791892,16.6530938 Z M31.1814572,14.7291293 C31.0576522,14.9842016 30.8901539,15.2155852 30.6789572,15.4232869 C30.4677605,15.6309887 30.2219749,15.8131805 29.941593,15.9698678 C29.6612112,16.126555 29.3662685,16.2577331 29.0567561,16.3634059 C28.7472437,16.4690788 28.4304534,16.5492432 28.1063757,16.6039015 C27.7822979,16.6585599 27.4709695,16.6858886 27.1723811,16.6858886 C26.9029232,16.6858886 26.6516757,16.6640256 26.4186311,16.6202989 C26.7681981,15.3449373 27.0467551,14.0604852 27.2543104,12.7669042 C27.4618658,11.4733231 27.6603149,10.1706519 27.8496637,8.85885134 C28.2283612,8.77868575 28.6216182,8.70763096 29.0294463,8.64568482 C29.4372744,8.58373869 29.8596615,8.55276608 30.2966202,8.55276608 C30.4786863,8.55276608 30.6716735,8.5746291 30.8755876,8.61835578 C31.0795017,8.66208247 31.2652063,8.74224685 31.4327072,8.85885134 C31.600208,8.97545583 31.7403968,9.12849693 31.8532778,9.31797923 C31.9661588,9.50746152 32.0225985,9.74795468 32.0225985,10.0394659 C32.0225985,10.3164016 31.9770826,10.5751139 31.8860496,10.8156107 C31.7950165,11.0561074 31.6784959,11.2747376 31.5364843,11.4715076 C31.3944728,11.6682777 31.2324363,11.8377161 31.0503702,11.9798278 C30.8683041,12.1219395 30.6825994,12.2294327 30.4932507,12.3023105 C30.587925,12.3533249 30.6862393,12.4262017 30.7881963,12.5209428 C30.8901533,12.615684 30.9848263,12.7268209 31.072218,12.8543571 C31.1596098,12.9818933 31.2306145,13.1331124 31.2852343,13.3080192 C31.3398542,13.4829259 31.3671637,13.679693 31.3671637,13.8983265 C31.3671637,14.1971255 31.3052621,14.474057 31.1814572,14.7291293 Z M28.7836583,13.2260321 C28.758169,13.360856 28.7345008,13.4902122 28.7126528,13.6141044 C28.6908049,13.7379967 28.6671367,13.8673529 28.6416474,14.0021768 C28.6161581,14.1370008 28.5888486,14.2955076 28.559718,14.4777021 C28.6980883,14.4631266 28.8546628,14.4376197 29.0294463,14.4011808 C29.2042298,14.3647419 29.3717281,14.3082625 29.5319463,14.2317408 C29.6921645,14.1552191 29.8268914,14.0531917 29.9361311,13.9256555 C30.0453708,13.7981193 30.0999898,13.6432563 30.0999898,13.4610618 C30.0999898,13.3298818 30.0653977,13.2205667 29.9962126,13.1331133 C29.9270275,13.04566 29.8396371,12.9727832 29.7340387,12.914481 C29.6284403,12.8561788 29.5137404,12.8142746 29.3899354,12.7887674 C29.2661305,12.7632602 29.1496099,12.7505068 29.0403702,12.7505068 L28.947517,12.7505068 C28.9220277,12.7505068 28.8947182,12.7541506 28.8655876,12.7614384 C28.836457,12.9363451 28.8091475,13.0912081 28.7836583,13.2260321 Z M29.3080061,10.4002092 C29.2897995,10.509526 29.2697725,10.6243068 29.2479246,10.7445552 C29.2260766,10.8648035 29.2024084,10.9832282 29.1769191,11.0998327 C29.1514299,11.2164372 29.1314029,11.3184646 29.1168376,11.4059179 C29.2770558,11.3767668 29.4372716,11.3366846 29.5974898,11.2856702 C29.757708,11.2346557 29.9015381,11.1781762 30.0289843,11.1162301 C30.1564306,11.054284 30.2583861,10.986873 30.3348539,10.9139952 C30.4113217,10.8411174 30.449555,10.760953 30.449555,10.6734997 C30.449555,10.5641829 30.4167836,10.474909 30.3512398,10.4056751 C30.285696,10.3364411 30.2001262,10.2799617 30.0945278,10.236235 C29.9889295,10.1925083 29.8796914,10.1615357 29.7668104,10.1433163 C29.6539294,10.1250968 29.5537946,10.1159872 29.4664028,10.1159872 L29.3571637,10.1159872 C29.3425984,10.1961528 29.3262127,10.2908925 29.3080061,10.4002092 Z M38.6315659,12.2640498 C38.5223262,12.690385 38.3693929,13.1130699 38.1727615,13.5321173 C37.9761301,13.9511647 37.7339858,14.3519866 37.4463213,14.7345951 C37.1586568,15.1172036 36.8327633,15.4524365 36.4686311,15.7403038 C36.1044988,16.0281712 35.70578,16.2595547 35.2724626,16.4344615 C34.8391452,16.6093682 34.3785248,16.6968202 33.8905876,16.6968202 C33.7886306,16.6968202 33.6866751,16.6913545 33.584718,16.6804228 C33.482761,16.6694911 33.3808055,16.6567377 33.2788485,16.6421622 C33.4754799,15.6364484 33.6684671,14.6562566 33.8578159,13.7015574 C33.9306423,13.3007294 34.0071089,12.8835103 34.087218,12.4498873 C34.1673271,12.0162644 34.2437938,11.5881137 34.3166202,11.1654224 C34.3894467,10.7427311 34.4604514,10.3382653 34.5296365,9.95201297 C34.5988217,9.5657606 34.6552613,9.21595237 34.6989572,8.90257781 C35.0121109,8.84427556 35.3289012,8.78961803 35.6493376,8.73860356 C35.969774,8.6875891 36.2974881,8.66208225 36.6324898,8.66208225 C37.0257526,8.66208225 37.3589286,8.72402745 37.6320278,8.84791972 C37.905127,8.971812 38.1272444,9.14307227 38.2983865,9.36170569 C38.4695287,9.58033911 38.5951524,9.83540761 38.6752615,10.1269188 C38.7553706,10.4184301 38.7954246,10.7281561 38.7954246,11.0561062 C38.7954246,11.4350708 38.7408055,11.8377147 38.6315659,12.2640498 Z M35.9661311,11.4387128 C35.8787393,11.8322529 35.7913489,12.229431 35.7039572,12.630259 C35.6165654,13.0310869 35.529175,13.450128 35.4417833,13.8873948 C35.3543915,14.3246617 35.2706424,14.8020042 35.1905333,15.3194366 C35.3653167,15.2028321 35.5346357,15.0443252 35.6984952,14.8439113 C35.8623547,14.6434973 36.0171086,14.4121137 36.1627615,14.1497536 C36.3084144,13.8873935 36.4413207,13.610462 36.5614843,13.3189508 C36.681648,13.0274396 36.7854241,12.7432204 36.8728159,12.4662847 C36.9602076,12.1893491 37.0275711,11.9306367 37.0749083,11.69014 C37.1222455,11.4496432 37.1459137,11.2419446 37.1459137,11.0670378 C37.1459137,10.79739 37.0712677,10.5860475 36.9219735,10.4330041 C36.7726793,10.2799607 36.5378175,10.2034401 36.2173811,10.2034401 C36.137272,10.6334192 36.0535228,11.0451726 35.9661311,11.4387128 Z M38.1399898,16.6530938 L39.5710224,8.88071457 L43.0229789,8.58556093 C42.9720004,8.74589211 42.9283052,8.90986471 42.891892,9.07748367 C42.8554787,9.2159515 42.8208867,9.35988301 42.7881148,9.50928251 C42.7553429,9.65868202 42.7280334,9.79168202 42.7061854,9.90828651 C42.633359,9.91557429 42.5295828,9.92104004 42.3948539,9.92468393 C42.260125,9.92832782 42.1162949,9.93197166 41.9633593,9.93561555 C41.8104238,9.93925944 41.6556699,9.94108136 41.499093,9.94108136 L41.0894463,9.94108136 L40.7071093,11.8978407 C40.9328713,11.8832651 41.1440649,11.8723336 41.3406963,11.8650458 C41.5009145,11.857758 41.6647716,11.8541142 41.8322724,11.8541142 C41.9997732,11.8541142 42.1235763,11.8504704 42.2036854,11.8431826 C42.1745549,12.0472405 42.1472453,12.2476514 42.1217561,12.4444215 C42.0962668,12.6411916 42.0653161,12.8416025 42.0289028,13.0456604 C41.9560764,13.0529482 41.8377352,13.0584139 41.6738757,13.0620578 C41.5100161,13.0657017 41.3443384,13.0711675 41.1768376,13.0784552 C40.9874888,13.085743 40.7799366,13.0930307 40.5541746,13.1003185 L40.1827615,15.1117359 L41.7776528,14.8603087 L41.6684137,16.106513 L38.1399898,16.6530938 Z M42.4221637,16.7405467 C42.5168381,15.7202574 42.6042285,14.7182026 42.6843376,13.7343522 C42.7207508,13.3262365 42.7553429,12.8962639 42.7881148,12.4444215 C42.8208867,11.9925791 42.8500168,11.5462092 42.8755061,11.1052985 C42.9009953,10.6643878 42.9210223,10.238059 42.9355876,9.82629939 C42.9501529,9.41453978 42.9610767,9.03740279 42.9683593,8.6948771 C43.1431428,8.6948771 43.3306681,8.69123326 43.5309409,8.68394548 C43.7312136,8.6766577 43.913277,8.66937003 44.0771365,8.66208225 C44.240996,8.65479447 44.3811849,8.64568488 44.4977072,8.63475321 L44.6724898,8.61835578 C44.5923807,9.46373834 44.5231966,10.157889 44.4649354,10.7008287 C44.4066743,11.2437683 44.3611584,11.6846725 44.3283865,12.0235543 C44.2956146,12.3624361 44.2664845,12.6885594 44.2409952,13.0019339 C44.215506,13.3153085 44.1881965,13.6068153 44.1590659,13.8764632 C44.1299353,14.1461111 44.1044464,14.3756728 44.0825985,14.5651551 L44.2792289,14.5651551 L45.5027072,8.74953518 C45.6993386,8.7422474 45.8996083,8.73131589 46.1035224,8.71674033 C46.2855885,8.70216477 46.4767551,8.69123326 46.6770278,8.68394548 C46.8773006,8.6766577 47.0611846,8.66208236 47.2286854,8.64021901 C47.1267284,8.96088136 47.0229523,9.31433342 46.9173539,9.7005858 C46.8117556,10.0868382 46.7025175,10.4876601 46.5896365,10.9030636 C46.4767555,11.3184671 46.3675175,11.741152 46.2619191,12.1711311 C46.1563208,12.6011101 46.0525446,13.0165074 45.9505876,13.4173353 C45.717543,14.3574591 45.4845018,15.3230755 45.2514572,16.3142137 L42.4221637,16.7405467 Z M15.3253974,27.4215516 C15.5438767,26.4377013 15.751429,25.4757286 15.9480604,24.5356049 C16.0281695,24.1420648 16.1119187,23.7266675 16.1993104,23.2894007 C16.2867022,22.8521338 16.3704513,22.4221612 16.4505604,21.99947 C16.5306695,21.5767787 16.6071362,21.1686691 16.6799626,20.7751289 C16.7527891,20.3815888 16.8146906,20.020849 16.8656691,19.6928989 C17.0768658,19.6273089 17.2844181,19.5708294 17.4883322,19.5234589 C17.6922462,19.4760883 17.9016191,19.4341842 18.1164572,19.3977453 C18.3312952,19.3613064 18.5333856,19.3430872 18.7227343,19.3430872 C19.0504534,19.3430872 19.3253691,19.3977447 19.5474898,19.5070614 C19.7696105,19.6163781 19.9498532,19.7639535 20.0882235,19.9497919 C20.2265937,20.1356303 20.324908,20.3524385 20.3831691,20.6002231 C20.4414303,20.8480076 20.4705604,21.1140076 20.4705604,21.3982311 C20.4705604,21.8063468 20.3959144,22.199881 20.2466202,22.5788456 C20.097326,22.9578102 19.8970563,23.294865 19.645805,23.5900201 C19.3945537,23.8851752 19.1068936,24.1202026 18.7828159,24.2951094 C18.4587382,24.4700161 18.1219209,24.5574682 17.7723539,24.5574682 L17.6521909,24.5574682 C17.5939297,24.8052527 17.5393107,25.0748966 17.4883322,25.3664078 C17.4373537,25.657919 17.3936584,25.9275628 17.3572452,26.1753474 C17.3062667,26.4668586 17.2589302,26.7583655 17.2152343,27.0498767 L15.3253974,27.4215516 Z M18.132843,22.0322648 C18.0527339,22.4622439 17.9653435,22.9213672 17.8706691,23.4096485 C17.9871915,23.3804973 18.1091739,23.3130864 18.2366202,23.2074136 C18.3640665,23.1017407 18.4824077,22.963275 18.5916474,22.7920121 C18.7008871,22.6207493 18.7882775,22.4221602 18.8538213,22.196239 C18.9193651,21.9703178 18.9521365,21.7334685 18.9521365,21.485684 C18.9521365,21.2160361 18.8920556,21.0119813 18.771892,20.8735135 C18.6517283,20.7350456 18.518822,20.6658128 18.3731691,20.6658128 C18.29306,21.1468063 18.2129521,21.6022857 18.132843,22.0322648 Z M19.5420278,27.4215516 C19.7386592,26.4522768 19.9280052,25.5048795 20.1100713,24.5793314 C20.1756151,24.1857912 20.2484405,23.7758597 20.3285496,23.3495246 C20.4086587,22.9231894 20.4833047,22.5005045 20.5524898,22.0814571 C20.6216749,21.6624097 20.6872177,21.2579439 20.7491202,20.8680477 C20.8110227,20.4781514 20.8601798,20.1228774 20.896593,19.8022151 C21.3117038,19.671035 21.7595798,19.5744734 22.2402343,19.5125272 C22.7208889,19.4505811 23.197895,19.4196085 23.671267,19.4196085 C23.9552901,19.4196085 24.1901519,19.452403 24.3758593,19.517993 C24.5615668,19.5835831 24.7072175,19.6765009 24.8128159,19.7967493 C24.9184142,19.9169976 24.9930602,20.0572853 25.0367561,20.2176165 C25.080452,20.3779477 25.1022996,20.5564956 25.1022996,20.7532657 C25.1022996,21.0447769 25.0513218,21.330818 24.9493648,21.6113976 C24.8474078,21.8919771 24.7108602,22.1579771 24.539718,22.4094056 C24.3685759,22.660834 24.1719474,22.8903956 23.9498267,23.0980974 C23.7277061,23.3057991 23.489203,23.4752375 23.2343104,23.6064176 C23.365398,23.8979288 23.5055869,24.2167644 23.6548811,24.562934 C23.8041753,24.9091036 23.9443641,25.2388707 24.0754517,25.5522453 C24.2211046,25.9166343 24.3703966,26.2810179 24.5233322,26.6454069 L22.8301257,27.2357142 C22.6844728,26.7692962 22.5533871,26.3320359 22.4368648,25.9239202 C22.3858863,25.7563013 22.3349085,25.5832191 22.28393,25.4046684 C22.2329515,25.2261178 22.185615,25.0566795 22.1419191,24.8963483 C22.0982233,24.7360171 22.0618106,24.5920856 22.03268,24.4645494 C22.0035494,24.3370133 21.9853431,24.233164 21.9780604,24.1529984 L21.8360496,24.1967248 C21.7923537,24.4299338 21.7395553,24.7032215 21.6776528,25.0165961 C21.6157503,25.3299706 21.5593107,25.632409 21.5083322,25.9239202 C21.4427884,26.2664459 21.3772455,26.6126103 21.3117017,26.9624238 L19.5420278,27.4215516 Z M22.1091474,22.6772302 C22.2475177,22.6626546 22.4168366,22.6043532 22.6171093,22.5023243 C22.8173821,22.4002954 23.0085487,22.2782269 23.1906148,22.1361152 C23.3726809,21.9940034 23.5292554,21.8464281 23.660343,21.6933847 C23.7914307,21.5403413 23.8569735,21.4055194 23.8569735,21.2889149 C23.8569735,21.2087493 23.8314846,21.1449822 23.7805061,21.0976116 C23.7295276,21.050241 23.6585228,21.0138027 23.5674898,20.9882954 C23.4764567,20.9627882 23.3763219,20.9463909 23.2670822,20.9391032 C23.1578425,20.9318154 23.0449632,20.9281716 22.9284409,20.9281716 C22.8483318,20.9281716 22.7664032,20.9299935 22.6826528,20.9336374 C22.5989024,20.9372813 22.5242564,20.9391032 22.4587126,20.9391032 L22.1091474,22.6772302 Z M30.2747724,23.1855503 C30.1473261,23.7139144 29.9780071,24.1985446 29.7668104,24.6394553 C29.5556137,25.080366 29.3098281,25.4739003 29.0294463,25.8200699 C28.7490645,26.1662394 28.4559424,26.4613901 28.1500713,26.7055308 C27.8442002,26.9496714 27.5346924,27.1355071 27.2215387,27.2630432 C26.908385,27.3905794 26.609801,27.4543465 26.3257778,27.4543465 C26.0854505,27.4543465 25.8669745,27.4087986 25.670343,27.3177013 C25.4737116,27.226604 25.302572,27.0917821 25.1569191,26.9132315 C25.0112662,26.7346809 24.8965663,26.5051192 24.8128159,26.2245397 C24.7290655,25.9439601 24.6871909,25.6069053 24.6871909,25.2133652 C24.6871909,24.8052494 24.7381686,24.3752768 24.8401257,23.9234344 C24.9420827,23.471592 25.0804509,23.0234002 25.2552343,22.5788456 C25.4300178,22.134291 25.6448526,21.7116061 25.8997452,21.3107781 C26.1546378,20.9099502 26.4350154,20.5546762 26.7408865,20.2449455 C27.0467576,19.9352149 27.3744717,19.6892559 27.7240387,19.5070614 C28.0736057,19.3248669 28.4377325,19.233771 28.81643,19.233771 C29.144149,19.233771 29.4154235,19.301182 29.6302615,19.4360059 C29.8450996,19.5708299 30.0125979,19.745734 30.1327615,19.9607235 C30.2529252,20.175713 30.338495,20.4180281 30.3894735,20.687676 C30.440452,20.9573239 30.4659409,21.2269677 30.4659409,21.4966156 C30.4659409,22.0942136 30.4022187,22.6571862 30.2747724,23.1855503 Z M26.3585496,25.1805703 C26.3876801,25.2680237 26.4277341,25.3445442 26.4787126,25.4101342 C26.5296911,25.4757243 26.5934133,25.5322037 26.6698811,25.5795743 C26.7463489,25.6269449 26.8282774,25.6506298 26.9156691,25.6506298 C27.2433882,25.6506298 27.5346896,25.5376709 27.7895822,25.3117497 C28.0444748,25.0858285 28.2556683,24.808897 28.4231691,24.4809469 C28.59067,24.1529967 28.719935,23.8031885 28.810968,23.4315117 C28.9020011,23.0598349 28.947517,22.7209582 28.947517,22.4148714 C28.947517,22.327418 28.9420551,22.2326783 28.9311311,22.1306493 C28.9202071,22.0286204 28.8983595,21.9338807 28.8655876,21.8464273 C28.8328157,21.758974 28.781838,21.6842753 28.7126528,21.6223292 C28.6434677,21.5603831 28.5506154,21.5294105 28.434093,21.5294105 C28.2010484,21.5294105 27.9862136,21.5877118 27.7895822,21.7043163 C27.5929508,21.8209208 27.4163493,21.9757838 27.2597724,22.16891 C27.1031955,22.3620362 26.966648,22.5806663 26.8501257,22.824807 C26.7336033,23.0689476 26.6334685,23.3167285 26.549718,23.5681569 C26.4659676,23.8195853 26.4058867,24.0655442 26.3694735,24.306041 C26.3330603,24.5465378 26.3148539,24.7542364 26.3148539,24.9291431 C26.3148539,25.0093087 26.329419,25.0931169 26.3585496,25.1805703 Z M30.4113213,27.2794406 C30.170994,27.3304551 29.9598005,27.377825 29.7777343,27.4215516 C29.8651261,27.1081771 29.9506959,26.7565469 30.0344463,26.3666507 C30.1181967,25.9767544 30.2019459,25.5668229 30.2856963,25.1368438 C30.3694467,24.7068648 30.4495546,24.2714264 30.5260224,23.8305157 C30.6024902,23.389605 30.6771362,22.9650981 30.7499626,22.5569824 C30.9028982,21.5877076 31.0558314,20.5856527 31.208767,19.5507879 L34.8682778,19.3649504 L34.5514843,20.7095392 L32.83643,20.7095392 L32.4977887,22.6553669 C32.7235507,22.6480792 32.9383855,22.6444353 33.1422996,22.6444353 L33.6557235,22.6444353 C33.830507,22.6444353 33.9652339,22.6407915 34.0599083,22.6335037 C34.0380603,22.8375616 34.0107508,23.0379725 33.9779789,23.2347426 C33.945207,23.4315127 33.9142562,23.6282798 33.8851257,23.8250499 C33.7904513,23.8250499 33.6557244,23.823228 33.4809409,23.8195841 C33.3061574,23.8159402 33.1259146,23.8104744 32.9402072,23.8031866 C32.7544997,23.7958989 32.5451268,23.7886112 32.3120822,23.7813234 L31.8095822,27.0061502 C31.5619722,27.0498769 31.3180073,27.0972468 31.07768,27.1482612 C30.8737659,27.1847001 30.6516486,27.2284262 30.4113213,27.2794406 Z M33.5464843,27.4215516 L34.977517,19.6491724 L38.4294735,19.3540188 C38.378495,19.51435 38.3347997,19.6783226 38.2983865,19.8459415 C38.2619733,19.9844094 38.2273813,20.1283409 38.1946093,20.2777404 C38.1618374,20.4271399 38.1345279,20.5601399 38.11268,20.6767444 C38.0398536,20.6840322 37.9360774,20.6894979 37.8013485,20.6931418 C37.6666195,20.6967857 37.5227895,20.7004295 37.3698539,20.7040734 C37.2169184,20.7077173 37.0621645,20.7095392 36.9055876,20.7095392 L36.4959409,20.7095392 L36.1136039,22.6662985 C36.3393659,22.651723 36.5505595,22.6407915 36.7471909,22.6335037 C36.9074091,22.6262159 37.0712661,22.6225721 37.238767,22.6225721 C37.4062678,22.6225721 37.5300709,22.6189282 37.61018,22.6116405 C37.5810494,22.8156983 37.5537399,23.0161093 37.5282507,23.2128794 C37.5027614,23.4096494 37.4718106,23.6100604 37.4353974,23.8141183 C37.3625709,23.821406 37.2442297,23.8268718 37.0803702,23.8305157 C36.9165107,23.8341596 36.750833,23.8396253 36.5833322,23.8469131 C36.3939834,23.8542009 36.1864311,23.8614886 35.9606691,23.8687763 L35.5892561,25.8801937 L37.1841474,25.6287666 L37.0749083,26.8749708 L33.5464843,27.4215516 Z M41.7885767,25.8200699 C41.6319999,26.1516639 41.4208063,26.437705 41.1549898,26.6782017 C40.8891732,26.9186985 40.5760242,27.1045341 40.2155333,27.2357142 C39.8550423,27.3668942 39.4672473,27.4324833 39.0521365,27.4324833 C38.7608307,27.4324833 38.4695293,27.3541408 38.1782235,27.1974535 C37.8869177,27.0407662 37.60654,26.7911635 37.3370822,26.4486378 L38.1454517,24.8635534 C38.1964303,24.9582946 38.2728969,25.0548562 38.3748539,25.1532413 C38.4768109,25.2516263 38.5915109,25.3372564 38.7189572,25.4101342 C38.8464035,25.4830121 38.9738478,25.5431353 39.1012941,25.5905059 C39.2287404,25.6378765 39.3434404,25.6615614 39.4453974,25.6615614 C39.5327891,25.6615614 39.6238208,25.6469861 39.7184952,25.617835 C39.8131696,25.5886838 39.90056,25.5449578 39.9806691,25.4866556 C40.0607782,25.4283533 40.1245004,25.3609424 40.1718376,25.2844207 C40.2191748,25.207899 40.242843,25.118625 40.242843,25.0165961 C40.242843,24.8416893 40.1864034,24.6795386 40.0735224,24.5301391 C39.9606414,24.3807396 39.8204526,24.23863 39.6529517,24.1038061 C39.4854509,23.9689822 39.3033875,23.8323383 39.1067561,23.6938705 C38.9101247,23.5554026 38.7298819,23.4096492 38.5660224,23.2566058 C38.4021629,23.1035624 38.2619741,22.9323022 38.1454517,22.7428199 C38.0289294,22.5533376 37.9706691,22.3419951 37.9706691,22.1087861 C37.9706691,21.7298215 38.0835484,21.3763695 38.3093104,21.0484193 C38.5350724,20.7204692 38.8172707,20.4380719 39.1559137,20.2012191 C39.4945567,19.9643662 39.8641454,19.7767087 40.2646909,19.6382408 C40.6652364,19.499773 41.0439282,19.4305401 41.4007778,19.4305401 C41.5974092,19.4305401 41.7831139,19.454225 41.9578974,19.5015956 C42.1326809,19.5489662 42.2837935,19.6254867 42.4112398,19.7311596 C42.5386861,19.8368324 42.6406416,19.9698324 42.7171093,20.1301636 C42.7935771,20.2904947 42.8318104,20.4909057 42.8318104,20.7314025 C42.8318104,20.8334314 42.8227073,20.9354588 42.8045007,21.0374877 C42.786294,21.1395166 42.7699083,21.2488317 42.755343,21.3654362 L41.1713757,21.8245641 C41.1859409,21.7662618 41.1986854,21.7079605 41.2096093,21.6496582 C41.2205333,21.591356 41.2259952,21.5330546 41.2259952,21.4747524 C41.2259952,21.2561189 41.1877619,21.0976121 41.1112941,20.9992271 C41.0348264,20.900842 40.9346915,20.8516502 40.8108865,20.8516502 C40.7526254,20.8516502 40.6816206,20.8735133 40.5978702,20.9172399 C40.5141198,20.9609666 40.4303706,21.0174461 40.3466202,21.08668 C40.2628698,21.1559139 40.1918651,21.2379002 40.1336039,21.3326414 C40.0753428,21.4273825 40.0462126,21.5294099 40.0462126,21.6387266 C40.0462126,21.8136333 40.0953697,21.9593868 40.1936854,22.0759913 C40.2920011,22.1925958 40.4139836,22.3019108 40.5596365,22.4039398 C40.7052894,22.5059687 40.8636846,22.609818 41.0348267,22.7154908 C41.2059689,22.8211636 41.3643641,22.9578075 41.510017,23.1254264 C41.6556699,23.2930454 41.7776523,23.5025659 41.875968,23.7539944 C41.9742838,24.0054228 42.0234409,24.3242584 42.0234409,24.7105108 C42.0234409,25.1186265 41.9451536,25.4884758 41.7885767,25.8200699 Z M41.9688213,27.4324833 C42.1727354,26.412194 42.3693638,25.4174268 42.5587126,24.448152 C42.6315391,24.0327485 42.7080057,23.600954 42.7881148,23.1527555 C42.8682239,22.704557 42.9428699,22.2618309 43.012055,21.8245641 C43.0812401,21.3872973 43.146783,20.9627904 43.2086854,20.5510308 C43.2705879,20.1392712 43.319745,19.765778 43.3561583,19.4305401 C43.5236591,19.4378279 43.678413,19.4469375 43.8204246,19.4578692 C43.9624361,19.4688008 44.102625,19.4779104 44.2409952,19.4851982 C44.3793655,19.492486 44.5195543,19.4979517 44.6615659,19.5015956 C44.8035775,19.5052395 44.9583313,19.5070614 45.1258322,19.5070614 C45.0020272,20.0244939 44.8800447,20.5419185 44.7598811,21.0593509 C44.6397174,21.5767834 44.5286588,22.0978519 44.4267017,22.6225721 L45.5081691,22.5023243 C45.6101262,21.9848919 45.7011579,21.4838645 45.781267,20.9992271 C45.8613761,20.5145896 45.9669728,20.0135622 46.0980604,19.4961298 C46.2655613,19.4669787 46.4512659,19.4432938 46.65518,19.4250743 C46.8590941,19.4068549 47.04844,19.3904576 47.2232235,19.375882 C47.398007,19.3613065 47.5454783,19.348553 47.665642,19.3376214 L47.8458865,19.321224 C47.7439295,19.6491741 47.6474359,20.0080919 47.5564028,20.3979882 C47.4653698,20.7878844 47.3761587,21.1923502 47.288767,21.6113976 C47.2013752,22.030445 47.1176261,22.4549518 47.037517,22.8849309 C46.9574079,23.3149099 46.8845825,23.7230195 46.8190387,24.1092719 C46.6588205,25.03482 46.5095285,25.9822173 46.3711583,26.9514921 L44.6670278,27.1482612 C44.7617022,26.7109944 44.8454514,26.2846656 44.9182778,25.8692621 C44.9911043,25.5194487 45.0657503,25.1550651 45.142218,24.7761005 C45.2186858,24.3971359 45.2787667,24.0728345 45.3224626,23.8031866 L44.262843,23.9015712 C44.2118645,24.1785069 44.1517836,24.4991644 44.0825985,24.8635534 C44.0134134,25.2279425 43.9496912,25.5741068 43.89143,25.902057 L43.6511039,27.0826715 L41.9688213,27.4324833 Z" id="path-5"></path>
        <filter x="-7.7%" y="-13.2%" width="121.5%" height="137.0%" filterUnits="objectBoundingBox" id="filter-6">
            <feOffset dx="1" dy="1" in="SourceAlpha" result="shadowOffsetOuter1"></feOffset>
            <feGaussianBlur stdDeviation="1" in="shadowOffsetOuter1" result="shadowBlurOuter1"></feGaussianBlur>
            <feColorMatrix values="0 0 0 0 0   0 0 0 0 0   0 0 0 0 0  0 0 0 0.5 0" type="matrix" in="shadowBlurOuter1"></feColorMatrix>
        </filter>
        <polygon id="path-7" points="0.106997283 23.7299948 10.3392493 7.27202322 14.1389266 8.56390675 13.1281844 27.3943679 4.79449728 31.1868459"></polygon>
        <filter x="-17.8%" y="-10.5%" width="149.9%" height="129.3%" filterUnits="objectBoundingBox" id="filter-8">
            <feOffset dx="1" dy="1" in="SourceAlpha" result="shadowOffsetOuter1"></feOffset>
            <feGaussianBlur stdDeviation="1" in="shadowOffsetOuter1" result="shadowBlurOuter1"></feGaussianBlur>
            <feColorMatrix values="0 0 0 0 0   0 0 0 0 0   0 0 0 0 0  0 0 0 0.5 0" type="matrix" in="shadowBlurOuter1"></feColorMatrix>
        </filter>
        <polygon id="path-9" points="10.7777471 0.144994328 10.7777471 6.16433029 14.4385827 7.46768589 17.9519786 2.5178026"></polygon>
        <filter x="-13.9%" y="-13.7%" width="155.8%" height="154.6%" filterUnits="objectBoundingBox" id="filter-10">
            <feOffset dx="1" dy="1" in="SourceAlpha" result="shadowOffsetOuter1"></feOffset>
            <feGaussianBlur stdDeviation="0.5" in="shadowOffsetOuter1" result="shadowBlurOuter1"></feGaussianBlur>
            <feColorMatrix values="0 0 0 0 0   0 0 0 0 0   0 0 0 0 0  0 0 0 0.5 0" type="matrix" in="shadowBlurOuter1"></feColorMatrix>
        </filter>
        <path d="M1.78006489,19.8623122 L1.78006489,19.4707319 L5.43484749,17.1995663 L5.88093445,17.9044108 L3.0322388,19.627364 L5.88093445,21.3111593 L5.43484749,22.0160038 L1.78006489,19.8623122 Z M9.55136923,16.5965326 L10.3183258,16.9411233 L7.52441271,23.2690607 L6.75745619,22.9088068 L9.55136923,16.5965326 Z M11.6174562,22.0160038 L11.1713692,21.3111593 L14.0200649,19.627364 L11.1713692,17.9044108 L11.6174562,17.1995663 L15.2722388,19.4707319 L15.2722388,19.8623122 L11.6174562,22.0160038 Z" id="path-11"></path>
        <filter x="-18.5%" y="-37.5%" width="151.9%" height="204.9%" filterUnits="objectBoundingBox" id="filter-12">
            <feOffset dx="1" dy="1" in="SourceAlpha" result="shadowOffsetOuter1"></feOffset>
            <feGaussianBlur stdDeviation="1" in="shadowOffsetOuter1" result="shadowBlurOuter1"></feGaussianBlur>
            <feColorMatrix values="0 0 0 0 0   0 0 0 0 0   0 0 0 0 0  0 0 0 0.5 0" type="matrix" in="shadowBlurOuter1"></feColorMatrix>
        </filter>
    </defs>
    <g id="Page-1" stroke="none" stroke-width="1" fill="none" fill-rule="evenodd">
        <g id="Mobile-Portrait" transform="translate(-13.000000, -27.000000)">
            <g id="LOGO" transform="translate(17.000000, 29.000000)">
                <g id="Path-5">
                    <use fill="black" fill-opacity="1" filter="url(#filter-2)" xlink:href="#path-1"></use>
                    <use fill="#4A4A4A" fill-rule="evenodd" xlink:href="#path-1"></use>
                </g>
                <g id="Rectangle">
                    <use fill="black" fill-opacity="1" filter="url(#filter-4)" xlink:href="#path-3"></use>
                    <use fill="#4A4A4A" fill-rule="evenodd" xlink:href="#path-3"></use>
                    <rect stroke="#4A4A4A" stroke-width="5" x="2.5" y="7.81039746" width="55" height="32.6896025"></rect>
                </g>
                <g id="Group-3" transform="translate(4.402174, 8.573567)">
                    <g id="Group-2" transform="translate(0.000000, 0.000000)">
                        <g id="Web-Dev-Profesh">
                            <use fill="black" fill-opacity="1" filter="url(#filter-6)" xlink:href="#path-5"></use>
                            <use fill="#41DE8D" fill-rule="evenodd" xlink:href="#path-5"></use>
                        </g>
                        <g id="Path-2">
                            <use fill="black" fill-opacity="1" filter="url(#filter-8)" xlink:href="#path-7"></use>
                            <use fill="#FFFFFF" fill-rule="evenodd" xlink:href="#path-7"></use>
                        </g>
                        <polygon id="Path-2-Copy" fill="#4A4A4A" points="0.94436074 23.7279007 10.5483211 7.97728291 13.4196083 8.9678878 12.5285192 26.7987758 5.10277658 30.1668325"></polygon>
                        <g id="Path-3">
                            <use fill="black" fill-opacity="1" filter="url(#filter-10)" xlink:href="#path-9"></use>
                            <use fill="#FFFFFF" fill-rule="evenodd" xlink:href="#path-9"></use>
                        </g>
                        <polygon id="Path-3-Copy" fill="#4A4A4A" points="11.4394102 1.04304868 11.3404003 5.50077069 14.2116875 6.59043607 16.7859449 2.92519797"></polygon>
                        <g id="&lt;/&gt;" transform="translate(8.526152, 19.932797) rotate(-70.000000) translate(-8.526152, -19.932797) ">
                            <use fill="black" fill-opacity="1" filter="url(#filter-12)" xlink:href="#path-11"></use>
                            <use fill="#FFFFFF" fill-rule="evenodd" xlink:href="#path-11"></use>
                        </g>
                    </g>
                </g>
            </g>
        </g>
    </g>
</svg>